<svg width="24" height="24" viewBox="0 0 24 24" fill="none" xmlns="http://www.w3.org/2000/svg">
<g clip-path="url(#clip0_1224_26598)">
<path d="M24 0H0V24H24V0Z" fill="black"/>
<path d="M3.67769 14.2226C3.67769 15.0333 3.85555 15.6556 4.08819 16.0322C4.39313 16.5254 4.84793 16.7347 5.31161 16.7347C5.90958 16.7347 6.45668 16.5863 7.51095 15.1281C8.35579 13.9594 9.35084 12.3189 10.0205 11.2904L11.1545 9.54797C11.9423 8.33789 12.8541 6.99272 13.8996 6.08092C14.7533 5.33666 15.6737 4.92322 16.6003 4.92322C18.156 4.92322 19.6377 5.82471 20.7718 7.51546C22.0129 9.36708 22.6153 11.6995 22.6153 14.1063C22.6153 15.5372 22.3333 16.5885 21.8533 17.4191C21.3897 18.2224 20.486 19.025 18.9658 19.025V16.7344C20.2675 16.7344 20.5923 15.5382 20.5923 14.1694C20.5923 12.2188 20.1375 10.0542 19.1356 8.50739C18.4247 7.41025 17.5033 6.73989 16.4896 6.73989C15.3931 6.73989 14.5109 7.56695 13.5193 9.04115C12.9921 9.82454 12.451 10.7791 11.8433 11.8563L11.1744 13.0413C9.8308 15.4242 9.49037 15.9667 8.8185 16.8621C7.64097 18.4301 6.63534 19.0246 5.31161 19.0246C3.74118 19.0246 2.74818 18.3445 2.13314 17.3198C1.63113 16.4848 1.38452 15.3891 1.38452 14.1407L3.67769 14.2226Z" fill="#0081FB"/>
<path d="M3.19263 7.67701C4.24397 6.05643 5.76121 4.9231 7.50141 4.9231C8.50917 4.9231 9.51124 5.22137 10.5572 6.07564C11.7016 7.00941 12.9213 8.54791 14.443 11.0824L14.9886 11.9917C16.3057 14.186 17.055 15.3149 17.4937 15.8472C18.0577 16.5309 18.4527 16.7347 18.9658 16.7347C20.2675 16.7347 20.5923 15.5386 20.5923 14.1697L22.6153 14.1063C22.6153 15.5371 22.3333 16.5885 21.8533 17.4191C21.3897 18.2223 20.486 19.0249 18.9658 19.0249C18.0207 19.0249 17.1836 18.8197 16.2577 17.9462C15.5462 17.2758 14.7139 16.085 14.0737 15.0144L12.1696 11.8338C11.2143 10.2376 10.3377 9.04743 9.83077 8.50842C9.28509 7.92877 8.58369 7.22889 7.46441 7.22889C6.55856 7.22889 5.78922 7.86457 5.14545 8.83693L3.19263 7.67701Z" fill="url(#paint0_linear_1224_26598)"/>
<path d="M7.46444 7.22889C6.5586 7.22889 5.78926 7.86457 5.14549 8.83693C4.2351 10.2109 3.67813 12.2575 3.67813 14.2228C3.67813 15.0335 3.85599 15.6559 4.08864 16.0324L2.13314 17.32C1.63113 16.4851 1.38452 15.3893 1.38452 14.1409C1.38452 11.8706 2.00766 9.50436 3.19266 7.67701C4.244 6.05643 5.76124 4.9231 7.50144 4.9231L7.46444 7.22889Z" fill="url(#paint1_linear_1224_26598)"/>
</g>
<defs>
<linearGradient id="paint0_linear_1224_26598" x1="5.98683" y1="11.6085" x2="20.6052" y2="12.3468" gradientUnits="userSpaceOnUse">
<stop stop-color="#0064E1"/>
<stop offset="0.4" stop-color="#0064E1"/>
<stop offset="0.83" stop-color="#0073EE"/>
<stop offset="1" stop-color="#0082FB"/>
</linearGradient>
<linearGradient id="paint1_linear_1224_26598" x1="4.44293" y1="15.1856" x2="4.44293" y2="9.79596" gradientUnits="userSpaceOnUse">
<stop stop-color="#0082FB"/>
<stop offset="1" stop-color="#0064E0"/>
</linearGradient>
<clipPath id="clip0_1224_26598">
<rect width="24" height="24" rx="6" fill="white"/>
</clipPath>
</defs>
</svg>
