<svg width="24" height="23" viewBox="0 0 24 23" fill="none" xmlns="http://www.w3.org/2000/svg">
<path d="M3.69831 1.84916H1.84915V5.53445H3.69831V1.84916Z" fill="white"/>
<path d="M18.4655 1.84916H16.6164V5.53445H18.4655V1.84916Z" fill="white"/>
<path d="M3.69831 9.23277H1.84915V12.9181H3.69831V9.23277Z" fill="white"/>
<path d="M14.7672 5.53445H12.9181V9.21975H14.7672V5.53445Z" fill="white"/>
<path d="M3.69831 5.53445H1.84915V9.21975H3.69831V5.53445Z" fill="white"/>
<path d="M11.0819 12.9181H9.23276V16.6034H11.0819V12.9181Z" fill="white"/>
<path d="M3.69831 12.9181H1.84915V16.6034H3.69831V12.9181Z" fill="white"/>
<path d="M18.4655 12.9181H16.6164V16.6034H18.4655V12.9181Z" fill="white"/>
<path d="M3.69831 16.6164H1.84915V20.3017H3.69831V16.6164Z" fill="white"/>
<path d="M18.4655 16.6164H16.6164V20.3017H18.4655V16.6164Z" fill="white"/>
<path d="M7.3706 1.84916H3.6853V5.53445H7.3706V1.84916Z" fill="#FFCD00"/>
<path d="M22.1378 1.84916H18.4525V5.53445H22.1378V1.84916Z" fill="#FFCD00"/>
<path d="M11.0689 9.23277H7.38362V12.9181H11.0689V9.23277Z" fill="#FF6F00"/>
<path d="M14.7542 9.23277H11.0689V12.9181H14.7542V9.23277Z" fill="#FF6F00"/>
<path d="M18.4525 9.23277H14.7672V12.9181H18.4525V9.23277Z" fill="#FF6F00"/>
<path d="M7.3706 9.23277H3.6853V12.9181H7.3706V9.23277Z" fill="#FF6F00"/>
<path d="M22.1378 9.23277H18.4525V12.9181H22.1378V9.23277Z" fill="#FF6F00"/>
<path d="M11.0689 5.53445H7.38362V9.21975H11.0689V5.53445Z" fill="#FFA200"/>
<path d="M18.4525 5.53445H14.7672V9.21975H18.4525V5.53445Z" fill="#FFA200"/>
<path d="M7.3706 5.53445H3.6853V9.21975H7.3706V5.53445Z" fill="#FFA200"/>
<path d="M22.1378 5.53445H18.4525V9.21975H22.1378V5.53445Z" fill="#FFA200"/>
<path d="M14.7542 12.9181H11.0689V16.6034H14.7542V12.9181Z" fill="#FF4A0A"/>
<path d="M7.3706 12.9181H3.6853V16.6034H7.3706V12.9181Z" fill="#FF4A0A"/>
<path d="M22.1378 12.9181H18.4525V16.6034H22.1378V12.9181Z" fill="#FF4A0A"/>
<path d="M7.3706 16.6164H3.6853V20.3017H7.3706V16.6164Z" fill="#FF060F"/>
<path d="M22.1378 16.6164H18.4525V20.3017H22.1378V16.6164Z" fill="#FF060F"/>
</svg>
