<svg width="24" height="24" viewBox="0 0 24 24" fill="none" xmlns="http://www.w3.org/2000/svg">
<g clip-path="url(#clip0_809_35403)">
<path d="M24 0H0V24H24V0Z" fill="black"/>
<path d="M8.17387 10.8876L7.91975 10.0872H5.57491L5.32067 10.8876H3.69226L6.04627 4.29671H7.44927L9.83152 10.8876H8.17387ZM6.75252 6.17956L5.9427 8.89137H7.54347L6.75252 6.17956Z" fill="white"/>
<path d="M10.0127 4.29671H11.5569V10.8876H10.0127V4.29671Z" fill="white"/>
<path d="M11.9735 9.54022C12.0429 9.2148 12.1653 8.90304 12.336 8.61747C12.4845 8.37611 12.6705 8.15999 12.8869 7.97717C13.1081 7.79374 13.3425 7.62697 13.5884 7.47828C13.7829 7.36519 13.9633 7.25687 14.1298 7.15338C14.2833 7.05915 14.4296 6.95374 14.5676 6.83798C14.6868 6.73893 14.7873 6.61934 14.8643 6.48485C14.9378 6.35079 14.9751 6.19989 14.9725 6.04702C14.9725 5.7834 14.9004 5.59352 14.756 5.47738C14.6029 5.35841 14.4131 5.29677 14.2193 5.30316C13.9988 5.29649 13.7843 5.37586 13.6213 5.52447C13.4612 5.67201 13.3812 5.9184 13.3812 6.26364H11.8652C11.8625 5.97685 11.9153 5.69224 12.0206 5.42549C12.1217 5.17171 12.2776 4.94342 12.4772 4.75696C12.6898 4.56158 12.9396 4.41107 13.2117 4.31444C13.5322 4.20249 13.8701 4.14826 14.2095 4.15429C14.5008 4.15295 14.7909 4.19258 15.0711 4.27203C15.3318 4.34438 15.5763 4.46583 15.7914 4.62984C16.0028 4.79517 16.1722 5.00809 16.2857 5.25127C16.414 5.53332 16.4768 5.84074 16.4693 6.15049C16.4727 6.41251 16.4113 6.67131 16.2904 6.90383C16.1747 7.12499 16.0272 7.328 15.8526 7.5064C15.6821 7.68033 15.4944 7.83653 15.2924 7.97257C15.0913 8.1076 14.9093 8.22216 14.7462 8.31622C14.5201 8.4669 14.3333 8.59716 14.186 8.70704C14.0595 8.79847 13.9414 8.90084 13.8329 9.01297C13.7518 9.09623 13.6892 9.19574 13.6492 9.30492C13.6129 9.4174 13.5954 9.53511 13.5975 9.65327H16.4223V10.8867H11.8464C11.8384 10.4346 11.881 9.98291 11.9735 9.54022Z" fill="white"/>
<path d="M16.714 5.45247C16.9778 5.45785 17.2415 5.43416 17.5002 5.38183C17.673 5.34903 17.8358 5.27651 17.9757 5.17C18.088 5.07681 18.17 4.95222 18.2111 4.81218C18.2582 4.6437 18.2804 4.46923 18.277 4.29433H19.624V10.8859H18.0704V6.52621H16.714V5.45247Z" fill="white"/>
<path d="M3.75574 12.6714H5.19618V19.2622H3.75574V12.6714Z" fill="white"/>
<path d="M10.5153 14.7194V19.258H9.07466V18.6175C9.01555 18.7277 8.93926 18.8279 8.84864 18.9141C8.75179 19.0071 8.64248 19.0863 8.52385 19.1494C8.39668 19.2171 8.26245 19.2706 8.12364 19.3091C7.98278 19.3493 7.837 19.3699 7.69051 19.3703C7.38111 19.3738 7.07455 19.3112 6.79129 19.1867C6.52594 19.0699 6.28726 18.9001 6.08983 18.6877C5.89031 18.4694 5.73663 18.2132 5.63784 17.9344C5.42443 17.3216 5.42443 16.6546 5.63784 16.0418C5.73663 15.763 5.89031 15.5068 6.08983 15.2885C6.28726 15.0761 6.52594 14.9064 6.79129 14.7896C7.07464 14.6651 7.38129 14.6027 7.69071 14.6064C7.8372 14.6067 7.98298 14.6273 8.12384 14.6675C8.26332 14.7064 8.39769 14.7617 8.52406 14.8324C8.64297 14.8988 8.75225 14.9811 8.84884 15.0771C8.93712 15.1637 9.01315 15.2619 9.07484 15.369V14.7194H10.5153ZM7.99184 18.1468C8.14455 18.1492 8.29581 18.117 8.43436 18.0528C8.56272 17.9927 8.678 17.9079 8.77362 17.8033C8.87004 17.696 8.94515 17.5714 8.99493 17.436C9.0485 17.293 9.07556 17.1415 9.07475 16.9888C9.07694 16.6911 8.96969 16.4029 8.77341 16.179C8.67884 16.072 8.56339 15.9855 8.43416 15.9247C8.29488 15.8627 8.14411 15.8307 7.99164 15.8307C7.83917 15.8307 7.6884 15.8627 7.54912 15.9247C7.41992 15.9855 7.30447 16.072 7.20987 16.179C7.01368 16.4029 6.90648 16.6911 6.90862 16.9888C6.90773 17.1415 6.93478 17.2931 6.98847 17.436C7.03822 17.5714 7.11327 17.696 7.20967 17.8033C7.30531 17.9079 7.42059 17.9926 7.54892 18.0528C7.68759 18.1171 7.839 18.1493 7.99184 18.1468Z" fill="white"/>
<path d="M12.2662 19.2622H10.8254V12.6714H12.2662V15.3733C12.3279 15.2662 12.4039 15.168 12.4922 15.0815C12.5898 14.9846 12.7006 14.9022 12.8215 14.8367C12.9483 14.7671 13.0826 14.7118 13.2217 14.6719C13.364 14.631 13.5114 14.6104 13.6595 14.6107C13.9689 14.6072 14.2755 14.6698 14.5587 14.7943C14.824 14.9111 15.0629 15.0809 15.2601 15.2932C15.4596 15.5116 15.6133 15.7678 15.7123 16.0465C15.9254 16.6594 15.9254 17.3263 15.7123 17.9392C15.6133 18.2179 15.4596 18.4741 15.2601 18.6925C15.0629 18.9048 14.824 19.0746 14.5587 19.1914C14.2755 19.3159 13.9689 19.3785 13.6595 19.375C13.5114 19.3753 13.364 19.3547 13.2217 19.3138C13.0832 19.2743 12.9491 19.2208 12.8215 19.1542C12.701 19.0919 12.5901 19.0127 12.4922 18.9188C12.4016 18.8326 12.3253 18.7325 12.2662 18.6223V19.2622ZM13.3585 18.1511C13.5081 18.1527 13.6562 18.1206 13.7916 18.057C13.92 17.9969 14.0353 17.9122 14.1309 17.8075C14.2273 17.7003 14.3024 17.5756 14.3522 17.4402C14.4058 17.2973 14.4328 17.1457 14.432 16.9931C14.4342 16.6953 14.327 16.4071 14.1307 16.1832C14.0361 16.0763 13.9206 15.9898 13.7914 15.929C13.656 15.8654 13.508 15.833 13.3585 15.8344C13.2043 15.8325 13.0516 15.8646 12.9113 15.9285C12.7802 15.9883 12.6632 16.0749 12.5676 16.1827C12.3713 16.4066 12.2641 16.6948 12.2663 16.9925C12.2654 17.1452 12.2925 17.2968 12.3461 17.4398C12.3958 17.5752 12.4709 17.6998 12.5674 17.8071C12.664 17.9125 12.7809 17.9973 12.9111 18.0565C13.0514 18.1207 13.2042 18.153 13.3585 18.1511Z" fill="white"/>
<path d="M18.579 16.5881C18.7797 16.6446 18.968 16.7058 19.1439 16.7717C19.3082 16.8316 19.4636 16.914 19.6053 17.0166C19.7359 17.1126 19.8436 17.2364 19.9207 17.3791C20.0047 17.5485 20.0452 17.7362 20.0385 17.9252C20.0463 18.1629 19.9909 18.3984 19.8782 18.6079C19.7711 18.7935 19.6189 18.9489 19.4358 19.0599C19.2343 19.1812 19.0125 19.2656 18.7815 19.3093C18.5193 19.3608 18.2527 19.386 17.9856 19.3845C17.339 19.3845 16.8291 19.2433 16.4557 18.9609C16.082 18.6784 15.9708 18.2735 15.9708 17.7462H17.3079C17.3079 17.9849 17.3754 18.1559 17.5103 18.2593C17.6622 18.3682 17.8461 18.4229 18.033 18.4147C18.182 18.4211 18.3301 18.387 18.4612 18.3159C18.5161 18.2821 18.5603 18.234 18.5894 18.1767C18.6183 18.1193 18.631 18.0551 18.6261 17.991C18.6299 17.9141 18.6047 17.8385 18.5554 17.7792C18.4939 17.7154 18.4202 17.6642 18.3388 17.6285C18.2169 17.5721 18.091 17.5249 17.9622 17.4872C17.8083 17.4401 17.6246 17.3821 17.4115 17.3131C17.2232 17.2566 17.0442 17.1954 16.8747 17.1295C16.7159 17.0693 16.5654 16.9886 16.4274 16.8894C16.2989 16.7955 16.1943 16.673 16.1216 16.5315C16.0404 16.3612 16.0017 16.1739 16.0084 15.9853C16.0084 15.5146 16.1888 15.1662 16.5498 14.9403C16.9108 14.7143 17.3988 14.6012 18.0139 14.601C18.3056 14.5961 18.5961 14.6358 18.8756 14.7187C19.0994 14.7844 19.3076 14.8949 19.4875 15.0435C19.6443 15.177 19.7682 15.3445 19.8502 15.5332C19.932 15.7235 19.9738 15.9287 19.9727 16.1358H18.5507C18.5608 15.9765 18.5083 15.8195 18.4049 15.698C18.3451 15.6424 18.2747 15.5999 18.1976 15.5732C18.1205 15.5464 18.0387 15.536 17.9576 15.5426C17.825 15.5394 17.6945 15.5737 17.581 15.6415C17.5288 15.6731 17.4866 15.7183 17.4583 15.7722C17.43 15.8261 17.417 15.8868 17.4208 15.9475C17.4182 16.0223 17.4453 16.0951 17.4961 16.15C17.5597 16.2125 17.635 16.2621 17.7173 16.296C17.8354 16.3475 17.9564 16.3915 18.08 16.4278C18.2241 16.472 18.3905 16.5254 18.579 16.5881Z" fill="white"/>
</g>
<defs>
<clipPath id="clip0_809_35403">
<rect width="24" height="24" rx="6" fill="white"/>
</clipPath>
</defs>
</svg>
